<svg xmlns="http://www.w3.org/2000/svg" viewBox="0 0 1600 1150" width="1600" height="1150">
<title>プログラミング言語 進化の系譜</title>
<rect width="1600" height="1150" fill="#fafbfc" />
<defs><marker id="as" viewBox="0 0 10 10" refX="10" refY="5" markerWidth="6" markerHeight="6" orient="auto-start-reverse"><path d="M0 0L10 5L0 10z" fill="#5a6c7d"/></marker><marker id="ad" viewBox="0 0 10 10" refX="10" refY="5" markerWidth="6" markerHeight="6" orient="auto-start-reverse"><path d="M0 0L10 5L0 10z" fill="#8b9bac"/></marker></defs>
<path d="M262.4,180C322.4,180 164.0,225 224.0,225" stroke="#5a6c7d" stroke-width="1.4" fill="none"  marker-end="url(#as)" opacity="0.7"/>
<path d="M320.0,225.0C380.0,225.0 317.6,180 377.6,180" stroke="#5a6c7d" stroke-width="1.4" fill="none"  marker-end="url(#as)" opacity="0.7"/>
<path d="M320.0,235.0C380.0,235.0 356.0,225 416.0,225" stroke="#5a6c7d" stroke-width="1.4" fill="none"  marker-end="url(#as)" opacity="0.7"/>
<path d="M320.0,215.0C380.0,215.0 336.8,135 396.8,135" stroke="#5a6c7d" stroke-width="1.4" fill="none"  marker-end="url(#as)" opacity="0.7"/>
<path d="M492.8,135C552.8,135 394.4,80.0 454.4,80.0" stroke="#5a6c7d" stroke-width="1.4" fill="none"  marker-end="url(#as)" opacity="0.7"/>
<path d="M473.6,170.0C533.6,170.0 394.4,100.0 454.4,100.0" stroke="#5a6c7d" stroke-width="1.4" fill="none"  marker-end="url(#as)" opacity="0.7"/>
<path d="M473.6,190.0C663.6,190.0 322.0,570.0 512.0,570.0" stroke="#8b9bac" stroke-width="1.4" fill="none" stroke-dasharray="4,4" marker-end="url(#ad)" opacity="0.7"/>
<path d="M512.0,215.0C572.0,215.0 548.0,190.0 608.0,190.0" stroke="#5a6c7d" stroke-width="1.4" fill="none"  marker-end="url(#as)" opacity="0.7"/>
<path d="M512.0,221.66666666666666C572.0,221.66666666666666 432.79999999999995,270 492.79999999999995,270" stroke="#5a6c7d" stroke-width="1.4" fill="none"  marker-end="url(#as)" opacity="0.7"/>
<path d="M704.0,180C826.5,180 581.5,425 704.0,425" stroke="#5a6c7d" stroke-width="1.4" fill="none"  marker-end="url(#as)" opacity="0.7"/>
<path d="M512.0,228.33333333333334C665.6,228.33333333333334 742.4,335 896.0,335" stroke="#5a6c7d" stroke-width="1.4" fill="none"  marker-end="url(#as)" opacity="0.7"/>
<path d="M512.0,235.0C665.6,235.0 742.4,1030.0 896.0,1030.0" stroke="#5a6c7d" stroke-width="1.4" fill="none"  marker-end="url(#as)" opacity="0.7"/>
<path d="M588.8,280.0C711.68,280.0 773.12,725.0 896.0,725.0" stroke="#5a6c7d" stroke-width="1.4" fill="none"  marker-end="url(#as)" opacity="0.7"/>
<path d="M588.8,260.0C696.3199999999999,260.0 750.0799999999999,690 857.6,690" stroke="#5a6c7d" stroke-width="1.4" fill="none"  marker-end="url(#as)" opacity="0.7"/>
<path d="M550.4,91.42857142857143C610.4,91.42857142857143 605.6,370.0 665.6,370.0" stroke="#5a6c7d" stroke-width="1.4" fill="none"  marker-end="url(#as)" opacity="0.7"/>
<path d="M550.4,88.57142857142857C610.4,88.57142857142857 624.8,325.0 684.8,325.0" stroke="#5a6c7d" stroke-width="1.4" fill="none"  marker-end="url(#as)" opacity="0.7"/>
<path d="M550.4,100.0C796.16,100.0 919.04,1030.0 1164.8,1030.0" stroke="#5a6c7d" stroke-width="1.4" fill="none"  marker-end="url(#as)" opacity="0.7"/>
<path d="M550.4,85.71428571428571C734.72,85.71428571428571 826.88,280.0 1011.2,280.0" stroke="#5a6c7d" stroke-width="1.4" fill="none"  marker-end="url(#as)" opacity="0.7"/>
<path d="M550.4,80.0C849.9200000000001,80.0 999.6800000000001,125.0 1299.2,125.0" stroke="#5a6c7d" stroke-width="1.4" fill="none"  marker-end="url(#as)" opacity="0.7"/>
<path d="M550.4,94.28571428571429C627.2,94.28571428571429 665.5999999999999,725.0 742.4,725.0" stroke="#5a6c7d" stroke-width="1.4" fill="none"  marker-end="url(#as)" opacity="0.7"/>
<path d="M550.4,97.14285714285714C891.8285714285714,97.14285714285714 208.97142857142853,780 550.4,780" stroke="#5a6c7d" stroke-width="1.4" fill="none"  marker-end="url(#as)" opacity="0.7"/>
<path d="M454.4,370.0C514.4,370.0 394.4,335 454.4,335" stroke="#5a6c7d" stroke-width="1.4" fill="none"  marker-end="url(#as)" opacity="0.7"/>
<path d="M454.4,390.0C538.88,390.0 581.12,390.0 665.6,390.0" stroke="#5a6c7d" stroke-width="1.4" fill="none"  marker-end="url(#as)" opacity="0.7"/>
<path d="M550.4,325.0C610.4,325.0 624.8,345.0 684.8,345.0" stroke="#5a6c7d" stroke-width="1.4" fill="none"  marker-end="url(#as)" opacity="0.7"/>
<path d="M550.4,335.0C688.64,335.0 757.76,731.6666666666666 896.0,731.6666666666666" stroke="#5a6c7d" stroke-width="1.4" fill="none"  marker-end="url(#as)" opacity="0.7"/>
<path d="M761.6,383.3333333333333C821.6,383.3333333333333 836.0,380 896.0,380" stroke="#5a6c7d" stroke-width="1.4" fill="none"  marker-end="url(#as)" opacity="0.7"/>
<path d="M761.6,390.0C853.76,390.0 899.84,425.0 992.0,425.0" stroke="#5a6c7d" stroke-width="1.4" fill="none"  marker-end="url(#as)" opacity="0.7"/>
<path d="M761.6,376.6666666666667C861.44,376.6666666666667 911.36,300.0 1011.2,300.0" stroke="#5a6c7d" stroke-width="1.4" fill="none"  marker-end="url(#as)" opacity="0.7"/>
<path d="M780.8,335C972.8,335 1068.8,380.0 1260.8,380.0" stroke="#8b9bac" stroke-width="1.4" fill="none" stroke-dasharray="4,4" marker-end="url(#ad)" opacity="0.7"/>
<path d="M800.0,425C860.0,425 836.0,738.3333333333334 896.0,738.3333333333334" stroke="#5a6c7d" stroke-width="1.4" fill="none"  marker-end="url(#as)" opacity="0.7"/>
<path d="M992.0,376.6666666666667C1052.0,376.6666666666667 1008.8,370.0 1068.8,370.0" stroke="#8b9bac" stroke-width="1.4" fill="none" stroke-dasharray="4,4" marker-end="url(#ad)" opacity="0.7"/>
<path d="M992.0,370.0C1076.48,370.0 1118.72,325.0 1203.2,325.0" stroke="#8b9bac" stroke-width="1.4" fill="none" stroke-dasharray="4,4" marker-end="url(#ad)" opacity="0.7"/>
<path d="M992.0,390.0C1052.0,390.0 1066.4,525.0 1126.4,525.0" stroke="#8b9bac" stroke-width="1.4" fill="none" stroke-dasharray="4,4" marker-end="url(#ad)" opacity="0.7"/>
<path d="M1164.8,380C1224.8,380 1143.2,345.0 1203.2,345.0" stroke="#5a6c7d" stroke-width="1.4" fill="none"  marker-end="url(#as)" opacity="0.7"/>
<path d="M281.6,580C341.6,580 202.39999999999998,535 262.4,535" stroke="#5a6c7d" stroke-width="1.4" fill="none"  marker-end="url(#as)" opacity="0.7"/>
<path d="M358.4,525.0C418.4,525.0 279.2,580 339.2,580" stroke="#5a6c7d" stroke-width="1.4" fill="none"  marker-end="url(#as)" opacity="0.7"/>
<path d="M358.4,545.0C419.84,545.0 450.56,590.0 512.0,590.0" stroke="#5a6c7d" stroke-width="1.4" fill="none"  marker-end="url(#as)" opacity="0.7"/>
<path d="M780.8,590.0C949.76,590.0 1034.24,985.0 1203.2,985.0" stroke="#8b9bac" stroke-width="1.4" fill="none" stroke-dasharray="4,4" marker-end="url(#ad)" opacity="0.7"/>
<path d="M569.6,490C629.6,490 624.8,480.0 684.8,480.0" stroke="#5a6c7d" stroke-width="1.4" fill="none"  marker-end="url(#as)" opacity="0.7"/>
<path d="M435.2,625C495.2,625 394.4,535 454.4,535" stroke="#5a6c7d" stroke-width="1.4" fill="none"  marker-end="url(#as)" opacity="0.7"/>
<path d="M550.4,535C610.4,535 567.2,535 627.2,535" stroke="#5a6c7d" stroke-width="1.4" fill="none"  marker-end="url(#as)" opacity="0.7"/>
<path d="M723.2,535C790.7,535 636.5,670 704.0,670" stroke="#5a6c7d" stroke-width="1.4" fill="none"  marker-end="url(#as)" opacity="0.7"/>
<path d="M800.0,670C862.5,670 737.5,545.0 800.0,545.0" stroke="#5a6c7d" stroke-width="1.4" fill="none"  marker-end="url(#as)" opacity="0.7"/>
<path d="M646.4,625C707.84,625 738.56,535.0 800.0,535.0" stroke="#5a6c7d" stroke-width="1.4" fill="none"  marker-end="url(#as)" opacity="0.7"/>
<path d="M780.8,500.0C840.8,500.0 855.2,580 915.2,580" stroke="#5a6c7d" stroke-width="1.4" fill="none"  marker-end="url(#as)" opacity="0.7"/>
<path d="M780.8,480.0C840.8,480.0 740.0,525.0 800.0,525.0" stroke="#8b9bac" stroke-width="1.4" fill="none" stroke-dasharray="4,4" marker-end="url(#ad)" opacity="0.7"/>
<path d="M992.0,870.0C1061.12,870.0 1095.68,790.0 1164.8,790.0" stroke="#5a6c7d" stroke-width="1.4" fill="none"  marker-end="url(#as)" opacity="0.7"/>
<path d="M992.0,880.0C1107.2,880.0 1164.8,835.0 1280.0,835.0" stroke="#5a6c7d" stroke-width="1.4" fill="none"  marker-end="url(#as)" opacity="0.7"/>
<path d="M1260.8,780C1320.8,780 1220.0,815.0 1280.0,815.0" stroke="#5a6c7d" stroke-width="1.4" fill="none"  marker-end="url(#as)" opacity="0.7"/>
<path d="M992.0,860.0C1084.16,860.0 1130.24,745.0 1222.4,745.0" stroke="#5a6c7d" stroke-width="1.4" fill="none"  marker-end="url(#as)" opacity="0.7"/>
<path d="M1376.0,825C1436.0,825 1162.4,725.0 1222.4,725.0" stroke="#5a6c7d" stroke-width="1.4" fill="none"  marker-end="url(#as)" opacity="0.7"/>
<path d="M665.6,1040C757.76,1040 803.84,1050.0 896.0,1050.0" stroke="#5a6c7d" stroke-width="1.4" fill="none"  marker-end="url(#as)" opacity="0.7"/>
<path d="M819.2,995C972.8000000000001,995 1049.6,1005.0 1203.2,1005.0" stroke="#5a6c7d" stroke-width="1.4" fill="none"  marker-end="url(#as)" opacity="0.7"/>
<path d="M992.0,1040C1061.12,1040 1095.68,1050.0 1164.8,1050.0" stroke="#5a6c7d" stroke-width="1.4" fill="none"  marker-end="url(#as)" opacity="0.7"/>
<path d="M1260.8,1050.0C1320.8,1050.0 1200.8,1095.0 1260.8,1095.0" stroke="#8b9bac" stroke-width="1.4" fill="none" stroke-dasharray="4,4" marker-end="url(#ad)" opacity="0.7"/>
<path d="M1260.8,1030.0C1703.3,1030.0 856.7,145.0 1299.2,145.0" stroke="#8b9bac" stroke-width="1.4" fill="none" stroke-dasharray="4,4" marker-end="url(#ad)" opacity="0.7"/>
<path d="M550.4,345.0C619.52,345.0 654.08,780 723.2,780" stroke="#8b9bac" stroke-width="1.4" fill="none" stroke-dasharray="4,4" marker-end="url(#ad)" opacity="0.7"/>
<path d="M435.2,570.0C495.2,570.0 413.6,490 473.6,490" stroke="#8b9bac" stroke-width="1.4" fill="none" stroke-dasharray="4,4" marker-end="url(#ad)" opacity="0.7"/>
<path d="M435.2,580.0C497.59999999999997,580.0 497.6,620.0 560.0,620.0C622.4,620.0 622.4,570.0 684.8,570.0" stroke="#5a6c7d" stroke-width="1.4" fill="none"  marker-end="url(#as)" opacity="0.7"/>
<path d="M435.2,590.0C542.72,590.0 596.48,615.0 704.0,615.0" stroke="#5a6c7d" stroke-width="1.4" fill="none"  marker-end="url(#as)" opacity="0.7"/>
<path d="M780.8,580.0C840.8,580.0 644.0,635.0 704.0,635.0" stroke="#8b9bac" stroke-width="1.4" fill="none" stroke-dasharray="4,4" marker-end="url(#ad)" opacity="0.7"/>
<path d="M780.8,570.0C919.04,570.0 988.1600000000001,535.0 1126.4,535.0" stroke="#8b9bac" stroke-width="1.4" fill="none" stroke-dasharray="4,4" marker-end="url(#ad)" opacity="0.7"/>
<path d="M608.0,570.0C668.0,570.0 624.8,500.0 684.8,500.0" stroke="#8b9bac" stroke-width="1.4" fill="none" stroke-dasharray="4,4" marker-end="url(#ad)" opacity="0.7"/>
<path d="M608.0,583.3333333333334C668.0,583.3333333333334 624.8,590.0 684.8,590.0" stroke="#8b9bac" stroke-width="1.4" fill="none" stroke-dasharray="4,4" marker-end="url(#ad)" opacity="0.7"/>
<path d="M608.0,576.6666666666666C815.36,576.6666666666666 919.0400000000001,545.0 1126.4,545.0" stroke="#8b9bac" stroke-width="1.4" fill="none" stroke-dasharray="4,4" marker-end="url(#ad)" opacity="0.7"/>
<path d="M896.0,535.0C965.12,535.0 999.68,380.0 1068.8,380.0" stroke="#8b9bac" stroke-width="1.4" fill="none" stroke-dasharray="4,4" marker-end="url(#ad)" opacity="0.7"/>
<path d="M896.0,545.0C972.8,545.0 1011.2,580.0 1088.0,580.0" stroke="#8b9bac" stroke-width="1.4" fill="none" stroke-dasharray="4,4" marker-end="url(#ad)" opacity="0.7"/>
<path d="M819.2,780C879.2,780 836.0,880.0 896.0,880.0" stroke="#8b9bac" stroke-width="1.4" fill="none" stroke-dasharray="4,4" marker-end="url(#ad)" opacity="0.7"/>
<path d="M646.4,780C706.4,780 682.4,745.0 742.4,745.0" stroke="#8b9bac" stroke-width="1.4" fill="none" stroke-dasharray="4,4" marker-end="url(#ad)" opacity="0.7"/>
<path d="M838.4,745.0C898.4,745.0 759.2,825 819.2,825" stroke="#8b9bac" stroke-width="1.4" fill="none" stroke-dasharray="4,4" marker-end="url(#ad)" opacity="0.7"/>
<path d="M838.4,725.0C898.4,725.0 836.0,745.0 896.0,745.0" stroke="#5a6c7d" stroke-width="1.4" fill="none"  marker-end="url(#as)" opacity="0.7"/>
<path d="M838.4,735.0C898.4,735.0 816.8,780 876.8,780" stroke="#8b9bac" stroke-width="1.4" fill="none" stroke-dasharray="4,4" marker-end="url(#ad)" opacity="0.7"/>
<path d="M915.2,825C1038.0800000000002,825 1099.52,625 1222.4,625" stroke="#8b9bac" stroke-width="1.4" fill="none" stroke-dasharray="4,4" marker-end="url(#ad)" opacity="0.7"/>
<path d="M550.4,82.85714285714286C803.84,82.85714285714286 930.56,170.0 1184.0,170.0" stroke="#8b9bac" stroke-width="1.4" fill="none" stroke-dasharray="4,4" marker-end="url(#ad)" opacity="0.7"/>
<path d="M1011.2,570.0C1080.32,570.0 1114.88,190.0 1184.0,190.0" stroke="#8b9bac" stroke-width="1.4" fill="none" stroke-dasharray="4,4" marker-end="url(#ad)" opacity="0.7"/>
<path d="M1011.2,590.0C1071.2,590.0 1028.0,590.0 1088.0,590.0" stroke="#5a6c7d" stroke-width="1.4" fill="none"  marker-end="url(#as)" opacity="0.7"/>
<path d="M761.6,370.0C930.5600000000001,370.0 1015.04,176.66666666666666 1184.0,176.66666666666666" stroke="#8b9bac" stroke-width="1.4" fill="none" stroke-dasharray="4,4" marker-end="url(#ad)" opacity="0.7"/>
<path d="M1088.0,425C1160.5,425 1015.5,570.0 1088.0,570.0" stroke="#8b9bac" stroke-width="1.4" fill="none" stroke-dasharray="4,4" marker-end="url(#ad)" opacity="0.7"/>
<path d="M608.0,590.0C723.2,590.0 780.8,860.0 896.0,860.0" stroke="#8b9bac" stroke-width="1.4" fill="none" stroke-dasharray="4,4" marker-end="url(#ad)" opacity="0.7"/>
<path d="M992.0,740.0C1076.48,740.0 1118.72,995.0 1203.2,995.0" stroke="#5a6c7d" stroke-width="1.4" fill="none"  marker-end="url(#as)" opacity="0.7"/>
<path d="M992.0,735.0C1061.12,735.0 1095.68,770.0 1164.8,770.0" stroke="#5a6c7d" stroke-width="1.4" fill="none"  marker-end="url(#as)" opacity="0.7"/>
<path d="M992.0,725.0C1159.5,725.0 901.3,390.0 1068.8,390.0" stroke="#5a6c7d" stroke-width="1.4" fill="none"  marker-end="url(#as)" opacity="0.7"/>
<path d="M992.0,730.0C1099.52,730.0 1153.28,390.0 1260.8,390.0" stroke="#8b9bac" stroke-width="1.4" fill="none" stroke-dasharray="4,4" marker-end="url(#ad)" opacity="0.7"/>
<path d="M992.0,745.0C1099.52,745.0 1153.28,1075.0 1260.8,1075.0" stroke="#5a6c7d" stroke-width="1.4" fill="none"  marker-end="url(#as)" opacity="0.7"/>
<path d="M1280.0,190.0C1370.0,190.0 1170.8,370.0 1260.8,370.0" stroke="#8b9bac" stroke-width="1.4" fill="none" stroke-dasharray="4,4" marker-end="url(#ad)" opacity="0.7"/>
<path d="M1280.0,170.0C1340.0,170.0 1239.2,135.0 1299.2,135.0" stroke="#8b9bac" stroke-width="1.4" fill="none" stroke-dasharray="4,4" marker-end="url(#ad)" opacity="0.7"/>
<path d="M992.0,383.3333333333333C1052.0,383.3333333333333 932.0,435.0 992.0,435.0" stroke="#8b9bac" stroke-width="1.4" fill="none" stroke-dasharray="4,4" marker-end="url(#ad)" opacity="0.7"/>
<path d="M896.0,525.0C1011.2,525.0 1068.8,183.33333333333334 1184.0,183.33333333333334" stroke="#8b9bac" stroke-width="1.4" fill="none" stroke-dasharray="4,4" marker-end="url(#ad)" opacity="0.7"/>
<path d="M992.0,335C1052.0,335 932.0,415.0 992.0,415.0" stroke="#8b9bac" stroke-width="1.4" fill="none" stroke-dasharray="4,4" marker-end="url(#ad)" opacity="0.7"/>
<path d="M300.8,135C423.68,135 485.12,170.0 608.0,170.0" stroke="#8b9bac" stroke-width="1.4" fill="none" stroke-dasharray="4,4" marker-end="url(#ad)" opacity="0.7"/>
<line x1="80.0" y1="80" x2="80.0" y2="1070" stroke="#e1e4e8" stroke-width="1"/><text x="80.0" y="45" text-anchor="middle" font-size="16" font-family="sans-serif" fill="#95a5a6" font-weight="bold">1950s</text>
<line x1="272.0" y1="80" x2="272.0" y2="1070" stroke="#e1e4e8" stroke-width="1"/><text x="272.0" y="45" text-anchor="middle" font-size="16" font-family="sans-serif" fill="#95a5a6" font-weight="bold">1960s</text>
<line x1="464.0" y1="80" x2="464.0" y2="1070" stroke="#e1e4e8" stroke-width="1"/><text x="464.0" y="45" text-anchor="middle" font-size="16" font-family="sans-serif" fill="#95a5a6" font-weight="bold">1970s</text>
<line x1="656.0" y1="80" x2="656.0" y2="1070" stroke="#e1e4e8" stroke-width="1"/><text x="656.0" y="45" text-anchor="middle" font-size="16" font-family="sans-serif" fill="#95a5a6" font-weight="bold">1980s</text>
<line x1="848.0" y1="80" x2="848.0" y2="1070" stroke="#e1e4e8" stroke-width="1"/><text x="848.0" y="45" text-anchor="middle" font-size="16" font-family="sans-serif" fill="#95a5a6" font-weight="bold">1990s</text>
<line x1="1040.0" y1="80" x2="1040.0" y2="1070" stroke="#e1e4e8" stroke-width="1"/><text x="1040.0" y="45" text-anchor="middle" font-size="16" font-family="sans-serif" fill="#95a5a6" font-weight="bold">2000s</text>
<line x1="1232.0" y1="80" x2="1232.0" y2="1070" stroke="#e1e4e8" stroke-width="1"/><text x="1232.0" y="45" text-anchor="middle" font-size="16" font-family="sans-serif" fill="#95a5a6" font-weight="bold">2010s</text>
<line x1="1424.0" y1="80" x2="1424.0" y2="1070" stroke="#e1e4e8" stroke-width="1"/><text x="1424.0" y="45" text-anchor="middle" font-size="16" font-family="sans-serif" fill="#95a5a6" font-weight="bold">2020s</text>
<text x="30" y="180" transform="rotate(-90 30 180)" font-size="14" font-family="sans-serif" fill="#4a7cba" font-weight="bold" opacity="0.6" letter-spacing="3">PROCEDURAL</text>
<text x="30" y="380" transform="rotate(-90 30 380)" font-size="14" font-family="sans-serif" fill="#55a049" font-weight="bold" opacity="0.6" letter-spacing="3">OOP</text>
<text x="30" y="580" transform="rotate(-90 30 580)" font-size="14" font-family="sans-serif" fill="#d4a017" font-weight="bold" opacity="0.6" letter-spacing="3">FUNCTIONAL</text>
<text x="30" y="780" transform="rotate(-90 30 780)" font-size="14" font-family="sans-serif" fill="#8e44ad" font-weight="bold" opacity="0.6" letter-spacing="3">SCRIPTING</text>
<text x="30" y="1040" transform="rotate(-90 30 1040)" font-size="14" font-family="sans-serif" fill="#c0392b" font-weight="bold" opacity="0.6" letter-spacing="3">CONCURRENT</text>
<g><rect x="166.4" y="164.0" width="96" height="32" rx="6" ry="6" fill="#ffffff" fill-opacity="0.9" stroke="#4a7cba" stroke-width="1.8"/><text x="214.4" y="179" text-anchor="middle" font-size="12" font-family="sans-serif" font-weight="bold" fill="#2c3e50">FORTRAN</text><text x="214.4" y="192" text-anchor="middle" font-size="9" font-family="sans-serif" fill="#7f8c8d">1957</text></g>
<g><rect x="204.8" y="119.0" width="96" height="32" rx="6" ry="6" fill="#ffffff" fill-opacity="0.9" stroke="#4a7cba" stroke-width="1.8"/><text x="252.8" y="134" text-anchor="middle" font-size="12" font-family="sans-serif" font-weight="bold" fill="#2c3e50">COBOL</text><text x="252.8" y="147" text-anchor="middle" font-size="9" font-family="sans-serif" fill="#7f8c8d">1959</text></g>
<g><rect x="224.0" y="209.0" width="96" height="32" rx="6" ry="6" fill="#ffffff" fill-opacity="0.9" stroke="#4a7cba" stroke-width="1.8"/><text x="272.0" y="224" text-anchor="middle" font-size="12" font-family="sans-serif" font-weight="bold" fill="#2c3e50">ALGOL 60</text><text x="272.0" y="237" text-anchor="middle" font-size="9" font-family="sans-serif" fill="#7f8c8d">1960</text></g>
<g><rect x="377.6" y="164.0" width="96" height="32" rx="6" ry="6" fill="#ffffff" fill-opacity="0.9" stroke="#4a7cba" stroke-width="1.8"/><text x="425.6" y="179" text-anchor="middle" font-size="12" font-family="sans-serif" font-weight="bold" fill="#2c3e50">ALGOL 68</text><text x="425.6" y="192" text-anchor="middle" font-size="9" font-family="sans-serif" fill="#7f8c8d">1968</text></g>
<g><rect x="416.0" y="209.0" width="96" height="32" rx="6" ry="6" fill="#ffffff" fill-opacity="0.9" stroke="#4a7cba" stroke-width="1.8"/><text x="464.0" y="224" text-anchor="middle" font-size="12" font-family="sans-serif" font-weight="bold" fill="#2c3e50">Pascal</text><text x="464.0" y="237" text-anchor="middle" font-size="9" font-family="sans-serif" fill="#7f8c8d">1970</text></g>
<g><rect x="492.79999999999995" y="254.0" width="96" height="32" rx="6" ry="6" fill="#ffffff" fill-opacity="0.9" stroke="#4a7cba" stroke-width="1.8"/><text x="540.8" y="269" text-anchor="middle" font-size="12" font-family="sans-serif" font-weight="bold" fill="#2c3e50">CLU</text><text x="540.8" y="282" text-anchor="middle" font-size="9" font-family="sans-serif" fill="#7f8c8d">1974</text></g>
<g><rect x="396.8" y="119.0" width="96" height="32" rx="6" ry="6" fill="#ffffff" fill-opacity="0.9" stroke="#4a7cba" stroke-width="1.8"/><text x="444.8" y="134" text-anchor="middle" font-size="12" font-family="sans-serif" font-weight="bold" fill="#2c3e50">BCPL / B</text><text x="444.8" y="147" text-anchor="middle" font-size="9" font-family="sans-serif" fill="#7f8c8d">1969</text></g>
<g><rect x="454.4" y="74.0" width="96" height="32" rx="6" ry="6" fill="#ffffff" fill-opacity="0.9" stroke="#4a7cba" stroke-width="1.8"/><text x="502.4" y="89" text-anchor="middle" font-size="12" font-family="sans-serif" font-weight="bold" fill="#2c3e50">C</text><text x="502.4" y="102" text-anchor="middle" font-size="9" font-family="sans-serif" fill="#7f8c8d">1972</text></g>
<g><rect x="608.0" y="164.0" width="96" height="32" rx="6" ry="6" fill="#ffffff" fill-opacity="0.9" stroke="#4a7cba" stroke-width="1.8"/><text x="656.0" y="179" text-anchor="middle" font-size="12" font-family="sans-serif" font-weight="bold" fill="#2c3e50">Ada</text><text x="656.0" y="192" text-anchor="middle" font-size="9" font-family="sans-serif" fill="#7f8c8d">1980</text></g>
<g><rect x="1164.8" y="1024.0" width="96" height="32" rx="6" ry="6" fill="#ffffff" fill-opacity="0.9" stroke="#c0392b" stroke-width="1.8"/><text x="1212.8" y="1039" text-anchor="middle" font-size="12" font-family="sans-serif" font-weight="bold" fill="#2c3e50">Go</text><text x="1212.8" y="1052" text-anchor="middle" font-size="9" font-family="sans-serif" fill="#7f8c8d">2009</text></g>
<g><rect x="1184.0" y="164.0" width="96" height="32" rx="6" ry="6" fill="#ffffff" fill-opacity="0.9" stroke="#4a7cba" stroke-width="1.8"/><text x="1232.0" y="179" text-anchor="middle" font-size="12" font-family="sans-serif" font-weight="bold" fill="#2c3e50">Rust</text><text x="1232.0" y="192" text-anchor="middle" font-size="9" font-family="sans-serif" fill="#7f8c8d">2010</text></g>
<g><rect x="1299.2" y="119.0" width="96" height="32" rx="6" ry="6" fill="#ffffff" fill-opacity="0.9" stroke="#4a7cba" stroke-width="1.8"/><text x="1347.2" y="134" text-anchor="middle" font-size="12" font-family="sans-serif" font-weight="bold" fill="#2c3e50">Zig</text><text x="1347.2" y="147" text-anchor="middle" font-size="9" font-family="sans-serif" fill="#7f8c8d">2016</text></g>
<g><rect x="358.4" y="364.0" width="96" height="32" rx="6" ry="6" fill="#ffffff" fill-opacity="0.9" stroke="#55a049" stroke-width="1.8"/><text x="406.4" y="379" text-anchor="middle" font-size="12" font-family="sans-serif" font-weight="bold" fill="#2c3e50">Simula 67</text><text x="406.4" y="392" text-anchor="middle" font-size="9" font-family="sans-serif" fill="#7f8c8d">1967</text></g>
<g><rect x="454.4" y="319.0" width="96" height="32" rx="6" ry="6" fill="#ffffff" fill-opacity="0.9" stroke="#55a049" stroke-width="1.8"/><text x="502.4" y="334" text-anchor="middle" font-size="12" font-family="sans-serif" font-weight="bold" fill="#2c3e50">Smalltalk</text><text x="502.4" y="347" text-anchor="middle" font-size="9" font-family="sans-serif" fill="#7f8c8d">1972</text></g>
<g><rect x="665.6" y="364.0" width="96" height="32" rx="6" ry="6" fill="#ffffff" fill-opacity="0.9" stroke="#55a049" stroke-width="1.8"/><text x="713.6" y="379" text-anchor="middle" font-size="12" font-family="sans-serif" font-weight="bold" fill="#2c3e50">C++</text><text x="713.6" y="392" text-anchor="middle" font-size="9" font-family="sans-serif" fill="#7f8c8d">1983</text></g>
<g><rect x="684.8" y="319.0" width="96" height="32" rx="6" ry="6" fill="#ffffff" fill-opacity="0.9" stroke="#55a049" stroke-width="1.8"/><text x="732.8" y="334" text-anchor="middle" font-size="12" font-family="sans-serif" font-weight="bold" fill="#2c3e50">Objective-C</text><text x="732.8" y="347" text-anchor="middle" font-size="9" font-family="sans-serif" fill="#7f8c8d">1984</text></g>
<g><rect x="704.0" y="409.0" width="96" height="32" rx="6" ry="6" fill="#ffffff" fill-opacity="0.9" stroke="#55a049" stroke-width="1.8"/><text x="752.0" y="424" text-anchor="middle" font-size="12" font-family="sans-serif" font-weight="bold" fill="#2c3e50">Eiffel</text><text x="752.0" y="437" text-anchor="middle" font-size="9" font-family="sans-serif" fill="#7f8c8d">1985</text></g>
<g><rect x="896.0" y="364.0" width="96" height="32" rx="6" ry="6" fill="#ffffff" fill-opacity="0.9" stroke="#55a049" stroke-width="1.8"/><text x="944.0" y="379" text-anchor="middle" font-size="12" font-family="sans-serif" font-weight="bold" fill="#2c3e50">Java</text><text x="944.0" y="392" text-anchor="middle" font-size="9" font-family="sans-serif" fill="#7f8c8d">1995</text></g>
<g><rect x="896.0" y="319.0" width="96" height="32" rx="6" ry="6" fill="#ffffff" fill-opacity="0.9" stroke="#55a049" stroke-width="1.8"/><text x="944.0" y="334" text-anchor="middle" font-size="12" font-family="sans-serif" font-weight="bold" fill="#2c3e50">Delphi</text><text x="944.0" y="347" text-anchor="middle" font-size="9" font-family="sans-serif" fill="#7f8c8d">1995</text></g>
<g><rect x="992.0" y="409.0" width="96" height="32" rx="6" ry="6" fill="#ffffff" fill-opacity="0.9" stroke="#55a049" stroke-width="1.8"/><text x="1040.0" y="424" text-anchor="middle" font-size="12" font-family="sans-serif" font-weight="bold" fill="#2c3e50">C#</text><text x="1040.0" y="437" text-anchor="middle" font-size="9" font-family="sans-serif" fill="#7f8c8d">2000</text></g>
<g><rect x="1011.2" y="274.0" width="96" height="32" rx="6" ry="6" fill="#ffffff" fill-opacity="0.9" stroke="#55a049" stroke-width="1.8"/><text x="1059.2" y="289" text-anchor="middle" font-size="12" font-family="sans-serif" font-weight="bold" fill="#2c3e50">D</text><text x="1059.2" y="302" text-anchor="middle" font-size="9" font-family="sans-serif" fill="#7f8c8d">2001</text></g>
<g><rect x="1068.8" y="364.0" width="96" height="32" rx="6" ry="6" fill="#ffffff" fill-opacity="0.9" stroke="#55a049" stroke-width="1.8"/><text x="1116.8" y="379" text-anchor="middle" font-size="12" font-family="sans-serif" font-weight="bold" fill="#2c3e50">Scala</text><text x="1116.8" y="392" text-anchor="middle" font-size="9" font-family="sans-serif" fill="#7f8c8d">2004</text></g>
<g><rect x="1203.2" y="319.0" width="96" height="32" rx="6" ry="6" fill="#ffffff" fill-opacity="0.9" stroke="#55a049" stroke-width="1.8"/><text x="1251.2" y="334" text-anchor="middle" font-size="12" font-family="sans-serif" font-weight="bold" fill="#2c3e50">Kotlin</text><text x="1251.2" y="347" text-anchor="middle" font-size="9" font-family="sans-serif" fill="#7f8c8d">2011</text></g>
<g><rect x="1260.8" y="364.0" width="96" height="32" rx="6" ry="6" fill="#ffffff" fill-opacity="0.9" stroke="#55a049" stroke-width="1.8"/><text x="1308.8" y="379" text-anchor="middle" font-size="12" font-family="sans-serif" font-weight="bold" fill="#2c3e50">Swift</text><text x="1308.8" y="392" text-anchor="middle" font-size="9" font-family="sans-serif" fill="#7f8c8d">2014</text></g>
<g><rect x="185.6" y="564.0" width="96" height="32" rx="6" ry="6" fill="#ffffff" fill-opacity="0.9" stroke="#d4a017" stroke-width="1.8"/><text x="233.6" y="579" text-anchor="middle" font-size="12" font-family="sans-serif" font-weight="bold" fill="#2c3e50">LISP</text><text x="233.6" y="592" text-anchor="middle" font-size="9" font-family="sans-serif" fill="#7f8c8d">1958</text></g>
<g><rect x="262.4" y="519.0" width="96" height="32" rx="6" ry="6" fill="#ffffff" fill-opacity="0.9" stroke="#d4a017" stroke-width="1.8"/><text x="310.4" y="534" text-anchor="middle" font-size="12" font-family="sans-serif" font-weight="bold" fill="#2c3e50">LISP 1.5</text><text x="310.4" y="547" text-anchor="middle" font-size="9" font-family="sans-serif" fill="#7f8c8d">1962</text></g>
<g><rect x="339.2" y="564.0" width="96" height="32" rx="6" ry="6" fill="#ffffff" fill-opacity="0.9" stroke="#d4a017" stroke-width="1.8"/><text x="387.2" y="579" text-anchor="middle" font-size="12" font-family="sans-serif" font-weight="bold" fill="#2c3e50">MACLISP</text><text x="387.2" y="592" text-anchor="middle" font-size="9" font-family="sans-serif" fill="#7f8c8d">1966</text></g>
<g><rect x="512.0" y="564.0" width="96" height="32" rx="6" ry="6" fill="#ffffff" fill-opacity="0.9" stroke="#d4a017" stroke-width="1.8"/><text x="560.0" y="579" text-anchor="middle" font-size="12" font-family="sans-serif" font-weight="bold" fill="#2c3e50">Scheme</text><text x="560.0" y="592" text-anchor="middle" font-size="9" font-family="sans-serif" fill="#7f8c8d">1975</text></g>
<g><rect x="684.8" y="564.0" width="96" height="32" rx="6" ry="6" fill="#ffffff" fill-opacity="0.9" stroke="#d4a017" stroke-width="1.8"/><text x="732.8" y="579" text-anchor="middle" font-size="12" font-family="sans-serif" font-weight="bold" fill="#2c3e50">Common Lisp</text><text x="732.8" y="592" text-anchor="middle" font-size="9" font-family="sans-serif" fill="#7f8c8d">1984</text></g>
<g><rect x="704.0" y="609.0" width="96" height="32" rx="6" ry="6" fill="#ffffff" fill-opacity="0.9" stroke="#d4a017" stroke-width="1.8"/><text x="752.0" y="624" text-anchor="middle" font-size="12" font-family="sans-serif" font-weight="bold" fill="#2c3e50">Emacs Lisp</text><text x="752.0" y="637" text-anchor="middle" font-size="9" font-family="sans-serif" fill="#7f8c8d">1985</text></g>
<g><rect x="1126.4" y="519.0" width="96" height="32" rx="6" ry="6" fill="#ffffff" fill-opacity="0.9" stroke="#d4a017" stroke-width="1.8"/><text x="1174.4" y="534" text-anchor="middle" font-size="12" font-family="sans-serif" font-weight="bold" fill="#2c3e50">Clojure</text><text x="1174.4" y="547" text-anchor="middle" font-size="9" font-family="sans-serif" fill="#7f8c8d">2007</text></g>
<g><rect x="339.2" y="609.0" width="96" height="32" rx="6" ry="6" fill="#ffffff" fill-opacity="0.9" stroke="#d4a017" stroke-width="1.8"/><text x="387.2" y="624" text-anchor="middle" font-size="12" font-family="sans-serif" font-weight="bold" fill="#2c3e50">ISWIM</text><text x="387.2" y="637" text-anchor="middle" font-size="9" font-family="sans-serif" fill="#7f8c8d">1966</text></g>
<g><rect x="454.4" y="519.0" width="96" height="32" rx="6" ry="6" fill="#ffffff" fill-opacity="0.9" stroke="#d4a017" stroke-width="1.8"/><text x="502.4" y="534" text-anchor="middle" font-size="12" font-family="sans-serif" font-weight="bold" fill="#2c3e50">SASL</text><text x="502.4" y="547" text-anchor="middle" font-size="9" font-family="sans-serif" fill="#7f8c8d">1972</text></g>
<g><rect x="473.6" y="474.0" width="96" height="32" rx="6" ry="6" fill="#ffffff" fill-opacity="0.9" stroke="#d4a017" stroke-width="1.8"/><text x="521.6" y="489" text-anchor="middle" font-size="12" font-family="sans-serif" font-weight="bold" fill="#2c3e50">ML</text><text x="521.6" y="502" text-anchor="middle" font-size="9" font-family="sans-serif" fill="#7f8c8d">1973</text></g>
<g><rect x="550.4" y="609.0" width="96" height="32" rx="6" ry="6" fill="#ffffff" fill-opacity="0.9" stroke="#d4a017" stroke-width="1.8"/><text x="598.4" y="624" text-anchor="middle" font-size="12" font-family="sans-serif" font-weight="bold" fill="#2c3e50">FP</text><text x="598.4" y="637" text-anchor="middle" font-size="9" font-family="sans-serif" fill="#7f8c8d">1977</text></g>
<g><rect x="627.2" y="519.0" width="96" height="32" rx="6" ry="6" fill="#ffffff" fill-opacity="0.9" stroke="#d4a017" stroke-width="1.8"/><text x="675.2" y="534" text-anchor="middle" font-size="12" font-family="sans-serif" font-weight="bold" fill="#2c3e50">KRC</text><text x="675.2" y="547" text-anchor="middle" font-size="9" font-family="sans-serif" fill="#7f8c8d">1981</text></g>
<g><rect x="704.0" y="654.0" width="96" height="32" rx="6" ry="6" fill="#ffffff" fill-opacity="0.9" stroke="#d4a017" stroke-width="1.8"/><text x="752.0" y="669" text-anchor="middle" font-size="12" font-family="sans-serif" font-weight="bold" fill="#2c3e50">Miranda</text><text x="752.0" y="682" text-anchor="middle" font-size="9" font-family="sans-serif" fill="#7f8c8d">1985</text></g>
<g><rect x="684.8" y="474.0" width="96" height="32" rx="6" ry="6" fill="#ffffff" fill-opacity="0.9" stroke="#d4a017" stroke-width="1.8"/><text x="732.8" y="489" text-anchor="middle" font-size="12" font-family="sans-serif" font-weight="bold" fill="#2c3e50">Standard ML</text><text x="732.8" y="502" text-anchor="middle" font-size="9" font-family="sans-serif" fill="#7f8c8d">1984</text></g>
<g><rect x="800.0" y="519.0" width="96" height="32" rx="6" ry="6" fill="#ffffff" fill-opacity="0.9" stroke="#d4a017" stroke-width="1.8"/><text x="848.0" y="534" text-anchor="middle" font-size="12" font-family="sans-serif" font-weight="bold" fill="#2c3e50">Haskell</text><text x="848.0" y="547" text-anchor="middle" font-size="9" font-family="sans-serif" fill="#7f8c8d">1990</text></g>
<g><rect x="915.2" y="564.0" width="96" height="32" rx="6" ry="6" fill="#ffffff" fill-opacity="0.9" stroke="#d4a017" stroke-width="1.8"/><text x="963.2" y="579" text-anchor="middle" font-size="12" font-family="sans-serif" font-weight="bold" fill="#2c3e50">OCaml</text><text x="963.2" y="592" text-anchor="middle" font-size="9" font-family="sans-serif" fill="#7f8c8d">1996</text></g>
<g><rect x="1088.0" y="564.0" width="96" height="32" rx="6" ry="6" fill="#ffffff" fill-opacity="0.9" stroke="#d4a017" stroke-width="1.8"/><text x="1136.0" y="579" text-anchor="middle" font-size="12" font-family="sans-serif" font-weight="bold" fill="#2c3e50">F#</text><text x="1136.0" y="592" text-anchor="middle" font-size="9" font-family="sans-serif" fill="#7f8c8d">2005</text></g>
<g><rect x="1222.4" y="609.0" width="96" height="32" rx="6" ry="6" fill="#ffffff" fill-opacity="0.9" stroke="#d4a017" stroke-width="1.8"/><text x="1270.4" y="624" text-anchor="middle" font-size="12" font-family="sans-serif" font-weight="bold" fill="#2c3e50">Julia</text><text x="1270.4" y="637" text-anchor="middle" font-size="9" font-family="sans-serif" fill="#7f8c8d">2012</text></g>
<g><rect x="300.8" y="74.0" width="96" height="32" rx="6" ry="6" fill="#ffffff" fill-opacity="0.9" stroke="#4a7cba" stroke-width="1.8"/><text x="348.8" y="89" text-anchor="middle" font-size="12" font-family="sans-serif" font-weight="bold" fill="#2c3e50">BASIC</text><text x="348.8" y="102" text-anchor="middle" font-size="9" font-family="sans-serif" fill="#7f8c8d">1964</text></g>
<g><rect x="550.4" y="764.0" width="96" height="32" rx="6" ry="6" fill="#ffffff" fill-opacity="0.9" stroke="#8e44ad" stroke-width="1.8"/><text x="598.4" y="779" text-anchor="middle" font-size="12" font-family="sans-serif" font-weight="bold" fill="#2c3e50">AWK</text><text x="598.4" y="792" text-anchor="middle" font-size="9" font-family="sans-serif" fill="#7f8c8d">1977</text></g>
<g><rect x="742.4" y="719.0" width="96" height="32" rx="6" ry="6" fill="#ffffff" fill-opacity="0.9" stroke="#8e44ad" stroke-width="1.8"/><text x="790.4" y="734" text-anchor="middle" font-size="12" font-family="sans-serif" font-weight="bold" fill="#2c3e50">Perl</text><text x="790.4" y="747" text-anchor="middle" font-size="9" font-family="sans-serif" fill="#7f8c8d">1987</text></g>
<g><rect x="819.2" y="809.0" width="96" height="32" rx="6" ry="6" fill="#ffffff" fill-opacity="0.9" stroke="#8e44ad" stroke-width="1.8"/><text x="867.2" y="824" text-anchor="middle" font-size="12" font-family="sans-serif" font-weight="bold" fill="#2c3e50">Python</text><text x="867.2" y="837" text-anchor="middle" font-size="9" font-family="sans-serif" fill="#7f8c8d">1991</text></g>
<g><rect x="896.0" y="719.0" width="96" height="32" rx="6" ry="6" fill="#ffffff" fill-opacity="0.9" stroke="#8e44ad" stroke-width="1.8"/><text x="944.0" y="734" text-anchor="middle" font-size="12" font-family="sans-serif" font-weight="bold" fill="#2c3e50">Ruby</text><text x="944.0" y="747" text-anchor="middle" font-size="9" font-family="sans-serif" fill="#7f8c8d">1995</text></g>
<g><rect x="876.8" y="764.0" width="96" height="32" rx="6" ry="6" fill="#ffffff" fill-opacity="0.9" stroke="#8e44ad" stroke-width="1.8"/><text x="924.8" y="779" text-anchor="middle" font-size="12" font-family="sans-serif" font-weight="bold" fill="#2c3e50">PHP</text><text x="924.8" y="792" text-anchor="middle" font-size="9" font-family="sans-serif" fill="#7f8c8d">1994</text></g>
<g><rect x="857.6" y="674.0" width="96" height="32" rx="6" ry="6" fill="#ffffff" fill-opacity="0.9" stroke="#8e44ad" stroke-width="1.8"/><text x="905.6" y="689" text-anchor="middle" font-size="12" font-family="sans-serif" font-weight="bold" fill="#2c3e50">Lua</text><text x="905.6" y="702" text-anchor="middle" font-size="9" font-family="sans-serif" fill="#7f8c8d">1993</text></g>
<g><rect x="896.0" y="854.0" width="96" height="32" rx="6" ry="6" fill="#ffffff" fill-opacity="0.9" stroke="#8e44ad" stroke-width="1.8"/><text x="944.0" y="869" text-anchor="middle" font-size="12" font-family="sans-serif" font-weight="bold" fill="#2c3e50">JavaScript</text><text x="944.0" y="882" text-anchor="middle" font-size="9" font-family="sans-serif" fill="#7f8c8d">1995</text></g>
<g><rect x="1280.0" y="809.0" width="96" height="32" rx="6" ry="6" fill="#ffffff" fill-opacity="0.9" stroke="#8e44ad" stroke-width="1.8"/><text x="1328.0" y="824" text-anchor="middle" font-size="12" font-family="sans-serif" font-weight="bold" fill="#2c3e50">ES6+</text><text x="1328.0" y="837" text-anchor="middle" font-size="9" font-family="sans-serif" fill="#7f8c8d">2015</text></g>
<g><rect x="1164.8" y="764.0" width="96" height="32" rx="6" ry="6" fill="#ffffff" fill-opacity="0.9" stroke="#8e44ad" stroke-width="1.8"/><text x="1212.8" y="779" text-anchor="middle" font-size="12" font-family="sans-serif" font-weight="bold" fill="#2c3e50">CoffeeScript</text><text x="1212.8" y="792" text-anchor="middle" font-size="9" font-family="sans-serif" fill="#7f8c8d">2009</text></g>
<g><rect x="1222.4" y="719.0" width="96" height="32" rx="6" ry="6" fill="#ffffff" fill-opacity="0.9" stroke="#8e44ad" stroke-width="1.8"/><text x="1270.4" y="734" text-anchor="middle" font-size="12" font-family="sans-serif" font-weight="bold" fill="#2c3e50">TypeScript</text><text x="1270.4" y="747" text-anchor="middle" font-size="9" font-family="sans-serif" fill="#7f8c8d">2012</text></g>
<g><rect x="723.2" y="764.0" width="96" height="32" rx="6" ry="6" fill="#ffffff" fill-opacity="0.9" stroke="#8e44ad" stroke-width="1.8"/><text x="771.2" y="779" text-anchor="middle" font-size="12" font-family="sans-serif" font-weight="bold" fill="#2c3e50">Self</text><text x="771.2" y="792" text-anchor="middle" font-size="9" font-family="sans-serif" fill="#7f8c8d">1986</text></g>
<g><rect x="569.6" y="1024.0" width="96" height="32" rx="6" ry="6" fill="#ffffff" fill-opacity="0.9" stroke="#c0392b" stroke-width="1.8"/><text x="617.6" y="1039" text-anchor="middle" font-size="12" font-family="sans-serif" font-weight="bold" fill="#2c3e50">CSP</text><text x="617.6" y="1052" text-anchor="middle" font-size="9" font-family="sans-serif" fill="#7f8c8d">1978</text></g>
<g><rect x="896.0" y="1024.0" width="96" height="32" rx="6" ry="6" fill="#ffffff" fill-opacity="0.9" stroke="#c0392b" stroke-width="1.8"/><text x="944.0" y="1039" text-anchor="middle" font-size="12" font-family="sans-serif" font-weight="bold" fill="#2c3e50">Limbo</text><text x="944.0" y="1052" text-anchor="middle" font-size="9" font-family="sans-serif" fill="#7f8c8d">1995</text></g>
<g><rect x="723.2" y="979.0" width="96" height="32" rx="6" ry="6" fill="#ffffff" fill-opacity="0.9" stroke="#c0392b" stroke-width="1.8"/><text x="771.2" y="994" text-anchor="middle" font-size="12" font-family="sans-serif" font-weight="bold" fill="#2c3e50">Erlang</text><text x="771.2" y="1007" text-anchor="middle" font-size="9" font-family="sans-serif" fill="#7f8c8d">1986</text></g>
<g><rect x="1203.2" y="979.0" width="96" height="32" rx="6" ry="6" fill="#ffffff" fill-opacity="0.9" stroke="#c0392b" stroke-width="1.8"/><text x="1251.2" y="994" text-anchor="middle" font-size="12" font-family="sans-serif" font-weight="bold" fill="#2c3e50">Elixir</text><text x="1251.2" y="1007" text-anchor="middle" font-size="9" font-family="sans-serif" fill="#7f8c8d">2011</text></g>
<g><rect x="1260.8" y="1069.0" width="96" height="32" rx="6" ry="6" fill="#ffffff" fill-opacity="0.9" stroke="#c0392b" stroke-width="1.8"/><text x="1308.8" y="1084" text-anchor="middle" font-size="12" font-family="sans-serif" font-weight="bold" fill="#2c3e50">Crystal</text><text x="1308.8" y="1097" text-anchor="middle" font-size="9" font-family="sans-serif" fill="#7f8c8d">2014</text></g>
</svg>